/* XPM */
static char *_f21b78736b94d03db47e9c18567945f[] = {
/* columns rows colors chars-per-pixel */
"16 16 128 2 ",
"   c #F78000",
".  c #F78800",
"X  c #F78C00",
"o  c #F78D00",
"O  c #F78E00",
"+  c #F68F00",
"@  c #F88C00",
"#  c #F88D00",
"$  c #F88E00",
"%  c #F98E00",
"&  c #F88F00",
"*  c #F39303",
"=  c #F79000",
"-  c #F79100",
";  c #F79200",
":  c #F79301",
">  c #F59302",
",  c #F59303",
"<  c #F69302",
"1  c #F79203",
"2  c #F79401",
"3  c #F79501",
"4  c #F69402",
"5  c #F79402",
"6  c #F69403",
"7  c #F79503",
"8  c #F79604",
"9  c #F49406",
"0  c #F69506",
"q  c #F69607",
"w  c #F89000",
"e  c #F89100",
"r  c #F99100",
"t  c #F89101",
"y  c #F89200",
"u  c #F89300",
"i  c #F89301",
"p  c #F89400",
"a  c #F99400",
"s  c #F89500",
"d  c #F99500",
"f  c #F89501",
"g  c #F89502",
"h  c #F99502",
"j  c #F99602",
"k  c #F99603",
"l  c #F89405",
"z  c #F89605",
"x  c #F99705",
"c  c #F8980A",
"v  c #F89A0F",
"b  c #F79011",
"n  c #F79A12",
"m  c #F79B14",
"M  c #F79A17",
"N  c #F89A10",
"B  c #F89B11",
"V  c #F89D19",
"C  c #F89D1C",
"Z  c #F89C1D",
"A  c #F8A021",
"S  c #F8A224",
"D  c #F8A326",
"F  c #F7A029",
"G  c #F8A730",
"H  c #F7A937",
"J  c #F8AB3B",
"K  c #F8AC3B",
"L  c #F8AC3F",
"P  c #F7AF46",
"I  c #F8AF43",
"U  c #F8AC47",
"Y  c #F8B046",
"T  c #F8B14B",
"R  c #F8B24D",
"E  c #F8B553",
"W  c #F8B656",
"Q  c #F8B458",
"!  c #F8B858",
"~  c #F8B85A",
"^  c #F9BE68",
"/  c #F8BF6C",
"(  c #F9C06B",
")  c #F9C16F",
"_  c #F8C176",
"`  c #F9C880",
"'  c #F9CF8F",
"]  c #FACE8E",
"[  c #F9D59E",
"{  c #FADAA9",
"}  c #F9D9AA",
"|  c #FAD9AB",
" . c #FADBAD",
".. c #FAE0B7",
"X. c #FAE0B9",
"o. c #FAE1BB",
"O. c #FBE2BC",
"+. c #FBE5C5",
"@. c #FAE6C5",
"#. c #FBE6C7",
"$. c #FBE7C8",
"%. c #FAE7C9",
"&. c #FBEBD2",
"*. c #FAEBD3",
"=. c #FBEBD3",
"-. c #FCEBD1",
";. c #FCEEDA",
":. c #FCF0DE",
">. c #FBF2E3",
",. c #FCF1E1",
"<. c #FCF3E3",
"1. c #FCF2E4",
"2. c #FDF3E4",
"3. c #FDF4E6",
"4. c #FDF6EC",
"5. c #FDF8F1",
"6. c #FEF9F3",
"7. c #FDF9F4",
"8. c #FDFAF4",
"9. c #FDFBF8",
"0. c #FDFCF8",
"q. c #FEFDFB",
"w. c #FEFEFD",
"e. c #FDFEFE",
"r. c #FDFFFF",
"t. c #FEFFFF",
"y. c gray100",
"u. c None",
/* pixels */
"u.u.u.u.u.u.u.u.u.u.u.u.u.u.u.u.",
"u.u.u.u.u.u O % V N O : u.u.u.u.",
"u.u.u.7 u A [ J @.Q E N k u.u.u.",
"u.u.7 k % / r.q.r.X.>.M % k u.u.",
"u.7 u k u n X.r.5.r.q.-.L O 8 u.",
"u.: u k u : 2.$.M / -.r.,.v u u.",
"u.: k k % R r.) .   _ r.8.A u 9 ",
"u.k k k % | r.8...~ -.r.+.: k : ",
": u u @ Z 9.;.:.r.r.r.8.T % k : ",
"u.k l J ` r.U : ! >.r.P % k 7 : ",
"u.: G r.r.6.I % b >.r.^ % k : u.",
"u.O D | 4.r.r.O.{ r.r.Y O k 7 u.",
"u.u.u X %.| 3.r.q.r.@.u k : u.u.",
"u.u.u.l J F *.W ] ] Z : k : u.u.",
"u.u.u.u.O c D % % % u k u.u.u.u.",
"u.u.u.u.u.u.O 9 q 8 u.u.u.u.u.u."
};
