/* XPM */
static char *fdf83792c4d647e8bf112aba57195605[] = {
/* columns rows colors chars-per-pixel */
"64 64 75 1 ",
"  c #E18D0A",
". c #E88E0F",
"X c #F68300",
"o c #F98600",
"O c #F68D00",
"+ c #F88D00",
"@ c #F48F0F",
"# c #ED9205",
"$ c #E5900B",
"% c #ED920B",
"& c #F69402",
"* c #F89400",
"= c #F89804",
"- c #F49409",
"; c #EF9412",
": c #F39514",
"> c #F49915",
", c #F89812",
"< c #F49719",
"1 c #F59B1C",
"2 c #F49D23",
"3 c #F3A025",
"4 c #F5A12B",
"5 c #F4A534",
"6 c #F5A53A",
"7 c #F3A93C",
"8 c #F4AB43",
"9 c #F3AD4B",
"0 c #F4B14D",
"q c #F3AE51",
"w c #F4B153",
"e c #F5B55B",
"r c #F4B660",
"t c #F5BA64",
"y c #F5BB6B",
"u c #F8BC6B",
"i c #F4BE72",
"p c #F5C175",
"a c #F6C37A",
"s c #F4C684",
"d c #F8C680",
"f c #F5C884",
"g c #F8C885",
"h c #F6CA8C",
"j c #F8CA8C",
"k c #F5CE94",
"l c #F8CC90",
"z c #F6CF98",
"x c #F5D194",
"c c #F6D29B",
"v c #F8D29C",
"b c #F6D4A2",
"n c #F8D5A2",
"m c #F7D7A8",
"M c #F6D9AC",
"N c #F7DCB1",
"B c #F9DCB4",
"V c #F7DFBB",
"C c #F8DEB9",
"Z c #F8E1BD",
"A c #F7E3C4",
"S c #F9E3C3",
"D c #F7E6C9",
"F c #F9E6C9",
"G c #F9E8CE",
"H c #F7E8D1",
"J c #F9EAD4",
"K c #F8EEDB",
"L c #FAF0DF",
"P c #FAF2E3",
"I c #FBF6EC",
"U c #FCF7F0",
"Y c #FBFAF4",
"T c #FEFEFD",
"R c None",
/* pixels */
"RRRRRRRRRRRRRRRRRRRRRRRRRRRRRRRRRRRRRRRRRRRRRRRRRRRRRRRRRRRRRRRR",
"RRRRRRRRRRRRRRRRRRRRRRRRRRRRRRRRRRRRRRRRRRRRRRRRRRRRRRRRRRRRRRRR",
"RRRRRRRRRRRRRRRRRRRRRRRRRRRR#.;::::  RRRRRRRRRRRRRRRRRRRRRRRRRRR",
"RRRRRRRRRRRRRRRRRRRRRRRR-#&&******&****#%RRRRRRRRRRRRRRRRRRRRRRR",
"RRRRRRRRRRRRRRRRRRRRR-&******************&*#RRRRRRRRRRRRRRRRRRRR",
"RRRRRRRRRRRRRRRRRRR&****&*****&&&**-*********-RRRRRRRRRRRRRRRRRR",
"RRRRRRRRRRRRRRRRR-****************&o**&********#RRRRRRRRRRRRRRRR",
"RRRRRRRRRRRRRRR-**********&&*****2Dp1************-RRRRRRRRRRRRRR",
"RRRRRRRRRRRRRR&***&****->O+&-**=opTTThO&**********-RRRRRRRRRRRRR",
"RRRRRRRRRRRRR&*******&*4PM0-o+*=-GTYTsO*>5O+*******&RRRRRRRRRRRR",
"RRRRRRRRRRRR=*********opTTTKh7&o8TYTY2*OsTBe>*&*****=RRRRRRRRRRR",
"RRRRRRRRRRR*******&***-GTTTTTTGkDTTTnO-#GTYTxO=*******RRRRRRRRRR",
"RRRRRRRRRR=*********&O5TTTTTTTTTTTTTyOX9TTYTq&*******&*RRRRRRRRR",
"RRRRRRRRR=*&********=OpTYTTTTTTTTTTTYV9MTYTK-********&*-RRRRRRRR",
"RRRRRRRR-*******&****-HTTTTTTTTTTTTTTTTTTYTiX=&********&&RRRRRRR",
"RRRRRRR-*******&***&+wTTTTTTTTTTTTTTTYTTTTTs>O*&********&-RRRRRR",
"RRRRRRR&*******=*****1iSTTTTTTTTTTTTTTTTTTTTYb7O*-*****&**RRRRRR",
"RRRRRR=**=************OO5zTTTTTTTTTTTTTTTTTTTTTC4O********=RRRRR",
"RRRRRR***=************-=XqTTTTTTTTTTTTTTTTTTTYTTYeO*&******RRRRR",
"RRRRR-*******************VTYTTTTJPTTTTTTTTTTTTTTTTtO&******&RRRR",
"RRRRR&*****==**=******&*4TTTTTTS*,eCYTTTTTTTTTTTYTY5+*******RRRR",
"RRRR&******************osTTTTTTeo-O*4dKTTTTTTTTTTTTN**&*****-RRR",
"RRRR&*****************&-HTTTTTL:*****O-0mYTTTTTTTTTY4+******=RRR",
"RRR.*******=*********=*8TTTTTThO*&*****+O2FTTTTTTTTTt+=******%RR",
"RRR#***********=******OvTTTTTT4*=******&=oyTTTTTTTTTg+*******#RR",
"RRR-********=********&1ITTTTTBO&**********nTTTTTTTTTgO-******#RR",
"RRR*****************=OyTTTTTT9o=&*******&1ITTTTTTTTTtO=*******RR",
"RR#***********=****&&OSTYTTTTk5OO**-**&&oiTYTTTTTTTT5*&&******$R",
"RR%**********==******5TTTTTTTTTFa4OO*=*=*STTTTTTTTTF&*&*******-R",
"RR#*****************OhTTTTTTTTTTTYCr:o*O6TTTTTTTTTTio-********&R",
"RR-********=********@KTTTTTTTTTTTTTTPk61CTTTTTTTTTI1**********-R",
"RR-*****=****=****=+wTTTTTTTTTTTTTTTTTYYTTTTTTTTTTnO**********#R",
"RR-***************&OMTTTTTTTTTTTTTTTTTTTTTTTTTTTYT6***********-R",
"RR&****************2UTTTTTTTTTTTTTTTTTTTTTTTTTTTTzO***********-R",
"RR-***************OiTTTTTTVSTTTTTTTTTTTTTTTTTTTTC-*****=******-R",
"RR&************&***FTTTTTT5O7zITTTTYTTTTTTTTTTTk@*************#R",
"RR-***********=&&+8TTTTTTA#**O1ySTTTTTTTTTTYHv6O**************-R",
"RR%*********&O+*=OkTTTTYTiO&&**OO5jKTTTTTTTY5X****************%R",
"RRR*********2Zy>O:PTTTTTU2****&***O-vTTTTTTTV*****************RR",
"RRR&******=oiTTIksTTTTYTNO********=O6TTTTTTTT8***************&RR",
"RRR-*****&*-JTTTTTTTTTTTe+********-OpTTTTTTTTj+=*************&RR",
"RRR#*****&+wTTTTTTTTTTTL@*=***&*****GTTTTTTTTCO**************#RR",
"RRRR*&***&OMTTTTYTTTTTTIt,o**-****O8TTTTTTTTTS***=***=*******RRR",
"RRRR&*****2UTTTTTTTTTTTTTLl5OO***=+zTTTTTTTTTNO***********&*#RRR",
"RRRR%=***OaTTTYTTTTTTTTTTTTYSu>++*1PTTTTTTTYTgO=************-RRR",
"RRRRR&**&*0VYTTTYTTTTTTTTTTTTTIn8<xTTTTTTTTTT8+******&*****=RRRR",
"RRRRR-****OO4aHTTTTTTTTTTTTTTTTTTUTTTTTTTTTTG&***=*********-RRRR",
"RRRRRR******+O&8zPTTTTTTTTTTTTYTTTYTTTTTTTTTpO-***********-RRRRR",
"RRRRRR#******-**XhTTTTTTTTTTTTTTTTTTTTTTTTTU2**********&*&-RRRRR",
"RRRRRRR=********:PTTYHYTTTTTTTTTTTTTTTTTTYTnO**&*******&*-RRRRRR",
"RRRRRRRR&******oeTTTP;4hKTTTTTTTTTTTTTTTTTU4**&*******&**RRRRRRR",
"RRRRRRRR&****&&*STYTkO&XqTTYTTTTTTTTTTTYTTiO************-RRRRRRR",
"RRRRRRRRR-*&***&sPTT6*-OmTYTHATTTTTTTTTTYp+************-RRRRRRRR",
"RRRRRRRRRR-*****O@th***2UTTT8O8bPTTTTTYB6O*&**********-RRRRRRRRR",
"RRRRRRRRRRR*****=*OO*&OaTYTG#*OO,8taae3O+************-RRRRRRRRRR",
"RRRRRRRRRRRR#*****=***ONTTTpO&-**+OOoO**=************RRRRRRRRRRR",
"RRRRRRRRRRRRR-*********-9NP2****&**-***************-RRRRRRRRRRRR",
"RRRRRRRRRRRRRRR*********OO<******&*****=*********-RRRRRRRRRRRRRR",
"RRRRRRRRRRRRRRRR-**&****&********&**************-RRRRRRRRRRRRRRR",
"RRRRRRRRRRRRRRRRRR-***************************=RRRRRRRRRRRRRRRRR",
"RRRRRRRRRRRRRRRRRRRR-&*&&&*&*********&*****=-RRRRRRRRRRRRRRRRRRR",
"RRRRRRRRRRRRRRRRRRRRRR-&******&**********-#RRRRRRRRRRRRRRRRRRRRR",
"RRRRRRRRRRRRRRRRRRRRRRRRR%#&&&&=**=&&##-RRRRRRRRRRRRRRRRRRRRRRRR",
"RRRRRRRRRRRRRRRRRRRRRRRRRRRRRRRRRRRRRRRRRRRRRRRRRRRRRRRRRRRRRRRR"
};
