/* XPM */
static char *_47df401e23b4db5edd15730a4095d1c[] = {
/* columns rows colors chars-per-pixel */
"32 32 53 1 ",
"  c #E78E09",
". c #F78600",
"X c #F88700",
"o c #F78D00",
"O c #F88E00",
"+ c #EC9009",
"@ c #F69303",
"# c #F89401",
"$ c #F6960B",
"% c #F7980E",
"& c #F79A13",
"* c #F69C1B",
"= c #F6A225",
"- c #F7A32A",
"; c #F7A736",
": c #F7A832",
"> c #F7AA3C",
", c #F7AD46",
"< c #F6AF49",
"1 c #F6B14B",
"2 c #F6B353",
"3 c #F6B761",
"4 c #F7BA64",
"5 c #F8BA63",
"6 c #F7BE6B",
"7 c #F8BE69",
"8 c #F8BF72",
"9 c #F7C173",
"0 c #F8C276",
"q c #F7C57B",
"w c #F8C67C",
"e c #F9C680",
"r c #F8C884",
"t c #F8CD8E",
"y c #F7CD92",
"u c #F9D195",
"i c #F7D198",
"p c #F9D7A4",
"a c #F9DAAD",
"s c #F9DCB3",
"d c #F9E0BB",
"f c #FAE4C4",
"g c #FAE6CA",
"h c #FBE8CD",
"j c #FAECD5",
"k c #FAEFDE",
"l c #FBF0DF",
"z c #FBF2E4",
"x c #FBF5EC",
"c c #FBF7F0",
"v c #FCFAF4",
"b c #FEFEFD",
"n c None",
/* pixels */
"nnnnnnnnnnnnnnnnnnnnnnnnnnnnnnnn",
"nnnnnnnnnnnnn@#$$$+@nnnnnnnnnnnn",
"nnnnnnnnnn@#@####O###@@nnnnnnnnn",
"nnnnnnnn@###OO##&2%#####nnnnnnnn",
"nnnnnnn####&6*OX2bdo&@o##@nnnnnn",
"nnnnnn###@o2bca2db4.hh-###@nnnnn",
"nnnnn#####opbbbbbbq2bv*#####nnnn",
"nnnn######*cbbvbbbbbbd@o####@nnn",
"nnn@######$2sbbbbbvbbbzq%O###nnn",
"nnn########O,bbbxbbbbbbbh*####nn",
"nn@########Opbbf#<pvbbbbbao###nn",
"nn########O*cbb3O@O&9xbbbb-O@#@n",
"nn########o6bbl%O$##.dbbbb,o##@n",
"n@#########fbbs$OO##-bbbbb-####n",
"n@########;bbbbxp1$Xebbbbg#####n",
"n########Otbbbbbbbjtzbbbb6#####+",
"n########%kbbbbbvbbbbbbbk%#####+",
"n######$O2bbv9abbbbbbbbz;O#####+",
"n@#####oOsbbgoO-wjbbbv6%O######n",
"n@###Oyp1cbb9o#OOosbbb8O#######n",
"nn###*cbbbbc*o@$#@fbbbhO#######n",
"nn@#oqbvbbbbu:OoO>bbbbj#######@n",
"nn@#oibbbbbbbbg6&pbbbbaO######nn",
"nnn@##-rjbbbbbbbbbbbbb2O#####@nn",
"nnn@###X5bxvbbvvbbbbbk%######nnn",
"nnnn###@fb5*hbbbbbbbb4######nnnn",
"nnnnn@##3s*@jbqavbbx7o#####@nnnn",
"nnnnnn@#OOO1bhoo*>;%#######nnnnn",
"nnnnnnn@@##@1<###oo######$nnnnnn",
"nnnnnnnn@###Oo##########nnnnnnnn",
"nnnnnnnnnn$@@########@nnnnnnnnnn",
"nnnnnnnnnnnnnn@$+@+nnnnnnnnnnnnn"
};
